<?xml version="1.0" encoding="UTF-8"?>
<!DOCTYPE svg PUBLIC "-//W3C//DTD SVG 1.1//EN" "http://www.w3.org/Graphics/SVG/1.1/DTD/svg11.dtd">
<!-- Creator: CorelDRAW 2021 (64-Bit) -->
<svg xmlns="http://www.w3.org/2000/svg" xml:space="preserve" width="173.397mm" height="130.455mm" version="1.1" style="shape-rendering:geometricPrecision; text-rendering:geometricPrecision; image-rendering:optimizeQuality; fill-rule:evenodd; clip-rule:evenodd"
viewBox="0 0 5346.13 4022.15"
 xmlns:xlink="http://www.w3.org/1999/xlink"
 xmlns:xodm="http://www.corel.com/coreldraw/odm/2003">
 <defs>
  <style type="text/css">
   <![CDATA[
    .fil3 {fill:none}
    .fil2 {fill:#99661F}
    .fil4 {fill:white}
    .fil1 {fill:#99661F;fill-rule:nonzero}
    .fil5 {fill:white;fill-rule:nonzero}
    .fil0 {fill:url(#id0)}
   ]]>
  </style>
  <radialGradient id="id0" gradientUnits="userSpaceOnUse" gradientTransform="matrix(1.19961 -0.302275 0.218217 0.866011 -972 1077)" cx="2673.06" cy="2011.07" r="2191.91" fx="2673.06" fy="2011.07">
   <stop offset="0" style="stop-opacity:1; stop-color:#FFF1B5"/>
   <stop offset="1" style="stop-opacity:1; stop-color:#F3910C"/>
  </radialGradient>
 </defs>
 <g id="Capa_x0020_1">
  <metadata id="CorelCorpID_0Corel-Layer"/>
  <g id="_1349868560688">
   <path class="fil0" d="M2194.75 112.86c1452.2,-365.92 2843.6,187.31 3107.76,1235.66 264.16,1048.35 -698.94,2194.86 -2151.14,2560.78 -1452.2,365.92 -2843.6,-187.31 -3107.76,-1235.66 -264.16,-1048.35 698.94,-2194.86 2151.14,-2560.78z"/>
   <path class="fil1" d="M1084.03 1619.38c30.76,-6.76 57.8,-3.75 81.32,8.97 23.52,12.72 38.86,41.86 45.99,87.16 2.4,15.25 5.16,43.84 7.79,85.88 2.9,42.2 6.07,91.92 9.43,149.09 3.38,57.18 6.57,118.89 9.52,184.88 2.95,65.98 6.24,130.25 9.91,193.04l27.62 -6.07c8.76,-1.93 18.33,-4.5 28.69,-7.72 10.36,-3.22 21.07,-6.98 32.13,-11.3 -2.16,11.55 -4.7,22.47 -8.09,32.85 -3.13,10.34 -6.76,19.63 -10.33,27.94 -4.34,9.21 -9.11,17.55 -13.84,24.95 -5.73,11.38 -13.02,22.17 -21.96,31.9 -8.92,9.73 -17.75,17.79 -26.42,24.41 3.36,44.24 6.63,83.79 10.25,118.54 3.37,34.59 7.02,62.99 11.17,85.15 5.5,33.64 13.27,64.67 22.99,92.92 8.28,24.78 19.12,49.48 32.98,73.99 13.69,24.79 30.84,42.91 51.87,55.01l-141.57 83.38c-13.81,-12.52 -25.83,-30.84 -36.27,-54.67 -10.23,-24.12 -19.04,-48.1 -26.21,-72.19 -8.83,-28.44 -15.85,-58.22 -21.03,-89.35 -4.97,-31.16 -8.8,-72.24 -11.85,-123.6 -3.04,-51.37 -6.18,-107.44 -9.43,-168.41 -18.67,-1.33 -38.75,-1.63 -60.15,-0.46 -21.46,0.95 -44.76,4.19 -70.15,9.76 -22.9,5.04 -46.52,11.17 -71.3,18.49 -24.53,7.27 -48.74,14.95 -72.92,22.84 -2.07,40.96 -3.64,84.16 -4.55,129.34 -1.24,49.03 -2.85,91.05 -4.79,126.1 -2.02,34.82 -4.75,64.15 -8.23,87.99 -3.53,23.62 -8.17,43.24 -13.61,58.09 -5.4,15.09 -12.27,26.71 -20.59,34.9 -9.42,7.49 -21.38,15.29 -36.38,23.06 -13.84,7.76 -31.71,16.39 -53.71,25.7 -21.69,9.47 -50.39,19.31 -85.73,29.89 9.81,-18.63 17.83,-35.7 24.62,-50.84 6.76,-15.39 12.86,-33.67 18.28,-55.11 5.42,-21.44 10.72,-48.75 16.01,-81.46 5.03,-32.9 11.56,-76.02 19.19,-129.26 3.47,-21.72 6.67,-45.73 9.7,-71.6 2.98,-26.08 6.54,-52.77 10.57,-80.5 -30.46,11.41 -56.3,21.32 -77.58,29.54 -21.23,8.42 -33.67,13.98 -37.82,16.54 -6.76,2.42 -12.37,3.65 -17.07,3.74 -11.8,0.94 -19.15,-3.57 -22.17,-13.02 -1.76,-12.32 0.4,-21.76 7.11,-27.7 6.43,-6.13 16.53,-13.75 30.02,-23.08 6.16,-5.11 20.96,-14.96 43.88,-29.64 22.9,-14.69 51.28,-31.29 84.91,-49.74 5.16,-39.75 9.92,-79.17 14.74,-118.39 4.77,-39.42 9.47,-76.95 14.51,-112.92 5.02,-36.18 9.83,-69.97 14.84,-101.91 4.99,-31.95 10.02,-59.42 15.04,-82.67 7.67,-35.82 18.93,-75.73 33.71,-119.95 14.56,-44.17 33.24,-86.66 56.07,-127.46 22.82,-40.81 49.8,-76.64 81.17,-107.54 31.61,-30.74 67.31,-50.57 107.74,-59.45zm45.75 276.97c0.99,-41.65 0.35,-75.65 -1.64,-101.82 -2.2,-26.13 -5.25,-46.41 -9.35,-60.83 -4.07,-14.17 -8.98,-23.68 -15.15,-28.21 -6.01,-4.82 -12.66,-6.18 -19.62,-4.65 -11.47,2.53 -24.46,9.86 -39.38,22.32 -14.7,12.41 -29.46,28.84 -44.31,49.05 -14.87,20.22 -28.64,44.44 -41.28,72.64 -12.69,27.99 -22.62,58.9 -30.01,92.78 -10.2,50.04 -20.59,110.96 -31.65,182.87 -10.82,71.83 -19.9,162.36 -27.24,271.59 16.93,-6.55 33.95,-12.65 50.69,-17.98 16.66,-5.54 33.33,-10.13 49.94,-13.79 29.88,-6.55 58.65,-11.7 86.32,-15.43 27.64,-3.95 53.33,-7 76.6,-9.3 -1.4,-43.95 -2.39,-87.06 -2.84,-129.82 -0.68,-42.71 -1.08,-83.13 -1.34,-121.91 -0.24,-38.57 -0.45,-73.85 -0.46,-106.1 -0.2,-31.98 -0.09,-59.32 0.71,-81.4zm-34.52 -539.88c6.49,-8.03 15.35,-9.49 26.59,-4.43 11.2,4.84 20.48,13.86 28.02,26.81 10.12,17.09 13.61,30.91 10.25,41.31 -3.14,10.35 -9.22,20.17 -18.25,29.45 -4.18,5.62 -12.74,13.86 -25.61,24.92 -12.6,11.25 -26.77,22.84 -42.02,34.9 -15.24,12.06 -30.46,23.17 -45.65,33.34 -15.38,10.43 -27.16,16.79 -35.72,19.62 -9.47,3.03 -17.13,3.53 -23.22,1.56 -5.81,-1.79 -10.91,-4.66 -14.99,-8.26 -3.9,-3.84 -7.02,-8.34 -9.19,-13.99 -2.14,-5.4 -3.73,-10.48 -4.66,-14.74 58.1,-62.45 98.55,-106.67 121.3,-132.85 13.2,-14.91 24.32,-27.49 33.15,-37.66zm465.84 1455.12c-34.17,8.43 -63.86,8.36 -88.95,0.23 -25.38,-8.32 -47.1,-23.57 -65.37,-45.7 -18.12,-22.39 -32.82,-50.71 -44.25,-85.63 -11.4,-34.72 -19.93,-73.57 -25.56,-116.37 -2.67,-33.55 -2.2,-68.97 1.56,-106.54 3.09,-31.99 10.43,-68.23 22.32,-108.51 11.87,-40.28 30.67,-81.14 56.42,-122.6 7.53,0 13.6,0.79 18.37,2.09 4.98,1.26 9.07,2.73 12.14,4.88 3.49,3 5.93,5.53 7.41,8.02 3.92,9.27 3.65,20.87 -0.6,34.75 -4.52,13.71 -8.58,28.49 -12.48,43.95 -10.43,44.68 -16.43,86.02 -18.19,124.09 -1.78,38.06 -0.72,72.91 3.31,104.06 4.24,26.85 9.71,50.61 16.45,71.72 6.99,21.07 14.41,38.76 22.03,53.1 7.84,14.29 15.18,25.15 22.39,32.28 6.99,7.18 12.86,10.37 17.13,9.43 4.5,-0.99 8.31,-5.11 11.91,-12.27 3.34,-7.33 6.43,-15.78 8.78,-25.47 3.47,-9.95 6.61,-24.53 9.59,-44.26 3.23,-19.55 6.1,-41.85 8.73,-67.38 2.69,-25.31 4.65,-52.82 6.23,-82.13 1.35,-29.25 1.96,-58.59 1.86,-88 0.02,-58.87 -0.65,-125.13 -2.21,-198.73 -1.39,-73.88 2.83,-152.27 13.26,-235.56 1.65,-34.27 4.64,-72.14 9.41,-113.68 3.2,-35.78 7.93,-77.55 14.61,-125.42 6.44,-47.8 14.52,-99.97 24.3,-156.27 -0.99,-4.5 1.68,-9.56 8.48,-15.06 6.52,-5.67 14.18,-11.57 22.83,-18.19 9.62,-6.58 20.32,-13.65 32.64,-20.83 16.14,-10.13 29.33,-16.57 39.23,-19.68 9.7,-3.08 17.84,-3.45 23.76,-1.21 6.18,2.4 10.54,6.16 13.61,11.61 3.03,5.2 5.37,11.53 6.89,18.5 8.17,28.57 15.02,55.56 21.05,80.84 6.03,25.29 11.64,47.6 16.78,66.73 5.88,22.48 10.87,43.06 14.91,61.47 6.32,24.52 12.14,57.38 17.52,99.06 5.56,41.4 11.17,85.14 17.16,130.68 5.77,45.59 11.8,90.19 18.2,133.29 6.24,43.37 13.31,78.79 21.28,106.48 3.25,14.81 6.98,28.6 11.1,40.89 4.15,12.51 8.27,24.79 12.73,36.53 4.54,-33.97 10.04,-70.04 16.38,-107.68 6.54,-37.71 13.12,-74.24 20.27,-109.24 6.88,-35.18 13.58,-67.97 19.63,-98.26 6.29,-30.35 10.91,-55.39 13.84,-75.34 5.13,-27.02 12.47,-61.14 21.71,-102.71 9.23,-41.6 18.69,-83.23 28.37,-124.92 9.68,-41.68 18.65,-80.16 27.25,-115.02 8.32,-35.02 14.71,-59.5 19.01,-73.16 3.47,-9.95 10.72,-19.77 21.73,-29.74 11.27,-9.77 23.63,-18.84 36.83,-27.39 13.24,-8.33 26.11,-15.16 38.47,-19.99 12.09,-5.02 20.58,-7.11 25.46,-6.29 12,-0.05 20.88,1.76 26.53,5 5.92,3.4 9.31,5.96 10.55,7.33 2.59,3.19 5.23,8.73 7.99,17.08 2.73,8.12 5.09,21.02 7.14,38.93 2.84,21.52 4.94,54.72 6.06,99.46 1.16,44.95 1.76,95.92 1.9,153.34 0.18,57.66 0.44,118.83 0.44,184.28 -0.02,65.24 0.64,129.39 1.45,192.06 0.88,62.92 2.7,121.62 5.03,176.21 2.33,54.59 6.04,100.4 11.46,136.88 7.05,40.61 17.35,75.79 31.25,104.75 5.38,12.72 12.24,24.63 20.07,35.62 8.11,11.19 17.44,20.43 28.22,27.72 10.78,7.29 22.82,11.71 36.16,13.49 13.3,1.55 27.97,-0.27 44.2,-5.71 -18.49,19.84 -37.63,35.58 -57.22,47.19 -19.58,11.6 -39.23,19.68 -59.45,24.12 -21.82,5.73 -41.88,6.59 -60.13,2.84 -18.25,-3.76 -34.73,-11.21 -49.19,-22.39 -14.2,-11.01 -26.32,-25.53 -35.64,-43.28 -9.31,-17.74 -15.64,-38.01 -18.88,-61.31 -3.07,-21.46 -4.82,-57.35 -5.78,-107.76 -0.94,-50.43 -1.48,-107.53 -1.14,-171.42 0.27,-64.11 1.14,-130.94 2.76,-200.74 1.84,-69.87 3.44,-135.47 5,-197.02 1.78,-61.61 3.13,-114.42 4.41,-158.97 1.33,-44.34 1.78,-73.39 1.56,-87.24 -0.52,-10.96 -1.13,-21.18 -1.79,-30.69 -0.69,-9.51 -1.11,-17.89 -0.85,-25.25 -4.92,19.44 -11.05,42.92 -18.25,70.17 -7.42,27.3 -15.09,56.77 -22.85,87.91 -7.98,31.18 -15.78,63.28 -23.48,96.76 -7.95,33.53 -15.24,65.74 -22.32,96.73 -12,50.44 -23.08,101.85 -33.68,154.34 -10.61,52.47 -19.52,102 -26.72,148.55 -7.16,46.79 -12.59,88.49 -16.09,125.04 -3.29,36.52 -4.03,64.24 -1.79,83.05l4.05 18.43c1.18,5.39 2.74,11.4 4.72,18.26 2.03,7.09 4.58,13.35 7.71,19.03l-43.59 52.43c-7.48,4.47 -13.74,8.2 -19,11.01 -5.45,3.08 -10.65,5.16 -16.04,6.33 -19.98,4.39 -37.81,-2.75 -53.01,-21.55 -14.51,-16.82 -32.47,-52.44 -53.57,-106.68 -21.32,-54.18 -38.93,-122.6 -53.48,-204.89 -7.08,-40.82 -13.13,-82.36 -18.34,-124.3 -5.03,-42.22 -9.67,-82.64 -14.15,-121.23 -4.24,-38.62 -8.39,-74.68 -12.01,-108.27 -3.65,-33.82 -8.29,-62.45 -13.49,-86.05 -2.94,-17.73 -6.94,-33.79 -11.67,-47.83 -5,-14.2 -9.71,-27.06 -14.23,-39.02 -3.42,21.94 -6.15,51.27 -8.23,87.99 -2,36.94 -3.68,77.58 -5.02,121.9 -1.28,44.55 -2.34,91.18 -2.9,140.03 -0.79,48.93 -1.53,95.94 -2.18,141.31 -0.69,45.11 -1.38,86.95 -2.15,125.27 -0.76,38.31 -1.31,69.04 -1.93,92.01 -1.01,37.21 -1.04,78.89 0.06,125.73 1.06,46.64 -0.68,91.28 -4.92,134.13 -4.48,42.9 -14.15,80.34 -29.19,112.61 -15.05,32.28 -39.07,52.62 -72.12,60.83zm1581.07 -735.09c7.53,60.04 1.56,116.45 -18.1,169.51 -19.44,53.02 -48.77,100.66 -87.76,142.91 -39.27,42.05 -85.79,77.94 -140.09,107.3 -54.31,29.34 -112.01,50.73 -173.56,64.24 -22.7,4.99 -44.38,8.11 -64.78,9.53 -20.47,1.19 -39.05,1.28 -55.71,0.45 -16.71,-1.02 -31.08,-2.11 -42.96,-3.74 -11.85,-1.41 -20.23,-3.09 -25.1,-4.85 -9.02,-2.49 -16.54,-6.73 -22.7,-12.21 -6.38,-5.42 -11.13,-14.26 -14.75,-26.42 -2.43,-6.77 -4.12,-12.29 -4.95,-16.1 -0.89,-4.04 -1.31,-8.2 -1.41,-12.88 -0.04,-4.46 -0.03,-10.82 0.6,-18.73 0.61,-7.91 1.26,-18.89 1.71,-32.86 0.09,-8.27 1.39,-34.45 4.12,-78.86 2.79,-44.18 5.74,-98.27 9.18,-161.9 3.63,-63.92 7.52,-133.05 11.89,-207.48 4.1,-74.6 8.26,-146.86 12.21,-216.73 3.96,-69.86 7.79,-132.88 10.92,-189.37 3.42,-56.31 5.56,-97.98 7.17,-124.96 -10.43,11.47 -20.53,23.35 -30.33,35.63 -9.56,12.22 -19.37,25.45 -29.21,39.62 -10.36,14.98 -22.45,22.12 -35.92,20.85 -13.64,-1.03 -25,-9.82 -34.24,-26.16 -3.49,-8.42 -6.87,-17.34 -9.88,-26.79 -2.63,-7.68 -4.38,-16.7 -5.24,-27.11 -0.88,-10.41 0.09,-20.99 3.38,-31.82 25.12,-23.89 50.12,-45.15 75.09,-63.36 24.91,-18.43 49,-35.24 72.26,-50.49 2.14,-16 5.47,-28.75 10.26,-38.03 4.78,-9.31 10.56,-16.23 16.94,-20.44 6.42,-4.01 13.62,-6.53 21.91,-7.41 8.07,-0.82 16.63,-1.53 25.78,-1.65 20.31,0.25 34.44,3.49 42.24,10.02 11.95,-4.5 23.38,-8.2 34.65,-11.61 11.25,-3.42 23.07,-6.47 35.19,-9.14 51,-11.19 96.68,-14.41 137.33,-9.46 40.6,4.75 75.5,15.69 104.46,32.86 29.19,17.15 52.22,39.4 69.33,66.96 16.9,27.6 27.86,58.18 32.5,92.23 3.85,29.3 2.59,61.14 -3.13,95.12 -5.94,34.03 -16.08,68.3 -30.54,103.25 -14.24,34.92 -32.48,69.77 -54.3,104.46 -21.8,34.7 -47.3,67.62 -76.27,98.71 30.68,9.97 58.97,23.07 84.46,39.37 25.76,16.48 48.32,35.54 67.83,56.91 19.32,21.43 34.94,44.38 46.81,68.38 11.65,24.04 19.3,48.26 22.7,72.25zm-506.59 -226.64c0.35,9.11 0.26,18.32 -0.06,27.56 -0.33,9.26 -0.78,19 -1.14,29.21 8.05,-13.77 23.48,-28.24 46.29,-43.36 22.82,-15.15 45.82,-25.15 68.51,-30.13 12.35,-2.71 24.4,-4.65 36.16,-5.82 11.48,-1.34 22.83,-2.19 33.79,-2.71 21.03,-21.1 40.35,-46.78 57.79,-76.74 17.15,-30.14 31.29,-61.27 42.1,-93.56 10.8,-32.27 18.54,-64.58 23.03,-96.66 4.22,-32.24 5.12,-61.4 1.95,-87.55 -7.87,-61.62 -28.07,-104.28 -60.36,-128.02 -32.53,-23.71 -72.35,-30.26 -119.74,-19.86 -31.45,6.91 -63.24,19.77 -94.88,38.73 -1.98,24.22 -4.53,54.45 -7.63,90.69 -3.15,36.01 -6.24,75.54 -9.27,118.59 -2.84,42.79 -6.06,88.21 -9.48,135.84 -3.23,47.55 -5.66,95.42 -7.05,143.77zm-3.19 91.59c-1.95,50.12 -3.02,104.28 -3,162.19 -1.05,49.92 -1.31,107.67 -0.57,173.21 0.56,65.82 1.28,135.59 1.87,210.09 6.33,3.1 13.99,4.7 23.15,4.58 9.14,-0.12 18.25,-0.47 27.41,-0.6 10.04,-0.32 20.81,-1.74 32.27,-4.25 39.31,-8.63 77.75,-25.56 115.07,-50.72 37.07,-25.32 69.55,-56.47 97.36,-93.9 27.57,-37.37 48.39,-79.86 62.43,-127.45 13.76,-47.77 17.23,-98.45 9.96,-151.95 -3.44,-24.2 -9.65,-44.96 -18.51,-62.82 -9.08,-17.78 -19.84,-33.54 -32.4,-46.79 -12.57,-13.26 -26.15,-24.64 -40.66,-33.93 -14.25,-9.12 -29.1,-16.69 -44.27,-22.54 -35.43,30.63 -75.85,58.82 -120.84,84.48 -14.79,7.72 -28.12,11.35 -40.22,10.95 -12.15,-0.63 -22.85,-3.23 -32.18,-8.24 -9.31,-4.78 -17.27,-11.03 -23.47,-18.87 -6.42,-7.77 -10.71,-15.54 -13.37,-23.43zm1003.77 -882.61c30.78,-6.76 57.8,-3.75 81.32,8.97 23.52,12.74 38.86,41.86 45.99,87.16 2.41,15.25 5.17,43.84 7.81,85.88 2.9,42.21 6.06,91.92 9.43,149.1 3.38,57.17 6.57,118.87 9.52,184.87 2.95,65.99 6.24,130.26 9.9,193.04l27.62 -6.07c8.77,-1.93 18.33,-4.5 28.7,-7.7 10.36,-3.23 21.07,-7 32.13,-11.3 -2.16,11.54 -4.72,22.46 -8.09,32.84 -3.13,10.35 -6.76,19.63 -10.33,27.95 -4.34,9.19 -9.11,17.55 -13.84,24.93 -5.74,11.38 -13.02,22.17 -21.96,31.9 -8.93,9.73 -17.75,17.8 -26.44,24.41 3.36,44.24 6.63,83.78 10.26,118.55 3.35,34.58 7,62.99 11.17,85.14 5.5,33.64 13.26,64.66 22.99,92.91 8.27,24.78 19.12,49.48 32.98,73.99 13.67,24.8 30.84,42.91 51.87,55.01l-141.57 83.38c-13.81,-12.51 -25.85,-30.83 -36.27,-54.67 -10.25,-24.12 -19.04,-48.1 -26.22,-72.19 -8.83,-28.44 -15.84,-58.21 -21.03,-89.34 -4.95,-31.16 -8.8,-72.25 -11.84,-123.6 -3.05,-51.38 -6.18,-107.44 -9.45,-168.42 -18.65,-1.31 -38.73,-1.62 -60.14,-0.45 -21.46,0.94 -44.76,4.18 -70.16,9.76 -22.91,5.03 -46.53,11.16 -71.29,18.49 -24.53,7.27 -48.75,14.94 -72.92,22.85 -2.08,40.95 -3.65,84.16 -4.55,129.32 -1.25,49.03 -2.85,91.06 -4.8,126.1 -2,34.82 -4.75,64.15 -8.22,87.99 -3.54,23.63 -8.17,43.25 -13.62,58.1 -5.39,15.07 -12.26,26.71 -20.58,34.9 -9.43,7.48 -21.38,15.29 -36.39,23.04 -13.84,7.76 -31.72,16.4 -53.7,25.7 -21.69,9.48 -50.39,19.3 -85.74,29.9 9.81,-18.64 17.83,-35.71 24.62,-50.86 6.76,-15.38 12.85,-33.67 18.28,-55.11 5.4,-21.44 10.72,-48.75 16.01,-81.46 5.02,-32.89 11.56,-76.02 19.18,-129.26 3.47,-21.72 6.67,-45.73 9.71,-71.58 2.98,-26.1 6.54,-52.78 10.57,-80.51 -30.46,11.4 -56.3,21.32 -77.58,29.52 -21.23,8.43 -33.67,13.98 -37.82,16.54 -6.76,2.41 -12.37,3.65 -17.07,3.75 -11.8,0.94 -19.15,-3.56 -22.17,-13.02 -1.78,-12.34 0.4,-21.77 7.09,-27.71 6.43,-6.12 16.53,-13.75 30.02,-23.07 6.17,-5.13 20.97,-14.97 43.89,-29.65 22.89,-14.69 51.28,-31.29 84.91,-49.74 5.17,-39.75 9.92,-79.17 14.73,-118.38 4.77,-39.43 9.47,-76.97 14.52,-112.93 5.02,-36.18 9.84,-69.96 14.83,-101.9 5,-31.96 10.03,-59.44 15.05,-82.67 7.67,-35.82 18.92,-75.74 33.69,-119.95 14.56,-44.18 33.24,-86.67 56.07,-127.47 22.83,-40.8 49.82,-76.64 81.17,-107.54 31.63,-30.73 67.31,-50.57 107.74,-59.45zm45.76 276.99c0.98,-41.66 0.34,-75.66 -1.64,-101.84 -2.2,-26.12 -5.25,-46.41 -9.36,-60.81 -4.05,-14.18 -8.97,-23.69 -15.15,-28.22 -5.99,-4.81 -12.65,-6.18 -19.62,-4.64 -11.46,2.52 -24.45,9.85 -39.38,22.31 -14.69,12.41 -29.45,28.84 -44.31,49.07 -14.88,20.21 -28.62,44.43 -41.27,72.62 -12.69,27.99 -22.62,58.9 -30.01,92.79 -10.2,50.04 -20.6,110.94 -31.65,182.85 -10.83,71.83 -19.9,162.36 -27.24,271.59 16.91,-6.54 33.94,-12.63 50.68,-17.97 16.68,-5.56 33.33,-10.15 49.96,-13.79 29.88,-6.57 58.65,-11.71 86.32,-15.43 27.63,-3.96 53.33,-7.02 76.6,-9.3 -1.4,-43.96 -2.4,-87.07 -2.86,-129.84 -0.66,-42.71 -1.06,-83.12 -1.34,-121.91 -0.23,-38.57 -0.45,-73.85 -0.46,-106.09 -0.19,-31.99 -0.07,-59.33 0.72,-81.41zm521.45 339.24c10.21,-3.9 20.1,-8.18 30.17,-12.75 10.06,-4.57 20.87,-10.01 32.48,-16.08 -18.14,-10.86 -39.85,-15.27 -65.07,-13.26 0.36,14.51 1.35,28.66 2.42,42.09zm448.93 -524.82c4.93,38.48 3.72,80.19 -3.65,124.91 -7.09,44.89 -21.04,89.63 -41.32,134.58 -20.48,45 -47.85,88.7 -81.62,131.2 -34.03,42.32 -75,79.82 -122.93,112.47 11.11,13.1 22.03,27.42 32.86,42.47 10.62,15.1 20.82,32.63 30.87,52.56 14.03,26.36 27.13,53.85 39.29,82.5 12.36,28.37 23.44,56.32 33.66,83.51 10,27.25 19.35,52.72 27.77,76.09 8.21,23.38 15.06,42.84 20.37,58.39 9.37,25.49 21.99,42.27 37.9,50.32 16.08,7.77 32.73,10.71 50.09,8.29 17.36,-2.4 34.23,-8.22 50.12,-17.35 15.94,-8.92 28.17,-17.5 36.46,-25.91 -0.7,1.09 -3.96,9.82 -9.52,26.35 -5.59,16.3 -14.11,34.42 -25.37,53.84 -11.51,19.47 -26.13,37.53 -44.01,53.71 -18.05,16.44 -40.36,25.33 -66.72,26.42 -18.11,1.15 -35.13,-1.24 -50.63,-7.5 -15.73,-6.19 -30.43,-17.34 -44.48,-33.08 -14.05,-15.75 -27.17,-36.89 -39.63,-63.59 -12.22,-26.75 -23.82,-60.22 -34.23,-100.09 -13.78,-54.18 -27.2,-105.64 -40.35,-154.78 -13.11,-48.93 -32.6,-92.69 -58.5,-131.26 -4.01,-6.43 -8.18,-12.59 -12.36,-18.71 -4.12,-5.93 -8.32,-11.12 -13.11,-15.74 -34.02,16.66 -73.16,31.38 -117.33,43.68 1.29,34.8 2.05,70.42 2.78,107 0.79,36.79 1.1,72.53 0.76,107.44 -0.06,35.1 -1.08,68.06 -2.93,99.31 -1.84,31.24 -4.4,58.17 -7.62,81.03 -3.93,23.93 -11.26,44.14 -21.96,60.86 -10.52,16.44 -30.83,27.96 -60.71,34.52 -17.52,3.85 -33.63,3.39 -48.62,-1.56 -15.01,-5.17 -29.97,-13.2 -45.44,-24.63 3,-3.49 7.5,-8.71 13.64,-16.18 6.4,-7.29 12.65,-20.68 19,-39.97 6.14,-19.24 11.82,-45.91 16.77,-80.22 4.95,-34.29 7.53,-79.35 8.14,-135.54 -0.34,-22.99 -0.12,-49.88 0.83,-80.93 0.95,-31.05 2.15,-65.24 3.22,-102.21 -39.51,-11.57 -61.36,-33.85 -65.81,-67.01 -2.6,-20.39 2.81,-39.71 16.38,-57.29 13.52,-17.8 31.6,-31.91 54.06,-42.25 1.45,-48.12 3.02,-96.75 4.7,-145.86 1.46,-49.06 3.09,-95.33 4.72,-138.3 1.58,-43.21 3.14,-82.17 4.69,-116.89 1.51,-34.96 2.75,-62.54 3.9,-83.05 -13.64,14.06 -26.75,29.43 -39.61,45.91 -11.64,14.55 -23.83,30.89 -36.83,48.82 -13.25,17.99 -24.95,36.57 -35.42,55.35 -8.32,-3.58 -15.22,-8.2 -21.04,-13.27 -5.61,-5.13 -10.38,-9.72 -13.79,-13.46 -4.78,-4.6 -8.71,-9.61 -11.85,-15.29 -8.77,-11.02 -14.89,-23.81 -18.04,-38.18 -3.2,-14.6 4.14,-31.53 22.01,-50.99 9.68,-10.6 24.52,-25.64 44.35,-45.77 20.1,-19.97 45.64,-40.88 76.74,-62.3 31.03,-21.66 68.13,-42.51 110.96,-62.99 43.06,-20.52 91.96,-36.92 147.22,-49.05 55.27,-12.15 102.61,-11 141.6,3.51 38.97,14.51 71.36,35.43 96.68,62.83 25.38,27.64 44.59,58.26 58.17,92.25 13.33,33.8 21.64,64.23 24.72,91.1zm-317.9 449.18c27.29,-21.54 53.8,-46.66 79.29,-75.35 25.49,-28.66 47.12,-60.96 64.84,-97.12 18,-35.98 30.74,-75.51 39.06,-118.07 8.04,-42.74 8.93,-89.09 2.39,-139.22 -6.08,-44.83 -17.04,-80.79 -32.67,-107.98 -15.66,-27.4 -34.56,-47.98 -56.37,-61.56 -21.82,-13.58 -45.03,-21.66 -69.35,-24.09 -24.53,-2.38 -48.07,-1.21 -70.97,3.82 -21.12,4.64 -41.55,12.41 -61.78,23.22 -20.19,11.03 -39.12,23.43 -57.22,37.53 2.68,0.35 6.26,1.68 10.65,4.49 2.39,2.3 4.87,5.05 8.01,8.61 3.14,3.54 5.61,7.23 7.48,11.53 -1.51,89.58 -2.1,164.11 -1.93,223.89 0.19,59.77 0.27,108.49 0.31,146.16 -0.43,44.12 0.06,79.57 1.14,105.95 -0.11,3.79 -0.05,7.3 0.52,10.95 0.34,3.69 0.5,7.66 0.59,12.35 20.25,0.02 42.01,2.55 64.92,7.17 23.15,4.58 46.81,13.74 71.09,27.72z"/>
   <g>
    <path class="fil2" d="M781.99 3070.62c1367.2,-283.84 2729.24,-628.77 4117.68,-790.39 26.1,-3.48 50.07,14.86 53.55,40.96 3.48,26.1 -14.86,50.06 -40.96,53.55 -1390.45,249.7 -2729.64,546.27 -4108.88,807.81 -30.9,5.9 -60.75,-14.36 -66.65,-45.26 -5.91,-30.9 14.36,-60.75 45.26,-66.65z"/>
   </g>
   <path class="fil3" d="M792.69 3126.58c1372.82,-262.42 2739.82,-616.31 4113.28,-799.1"/>
   <path class="fil1" d="M4800.09 2021.38c-1.83,-26.56 2.65,-51.59 13.34,-75.16 10.73,-23.57 26.52,-42.62 47.34,-57.16 20.81,-14.61 43.82,-22.74 69.04,-24.48 25.21,-1.74 49.13,3.15 71.69,14.79 22.62,11.55 40.78,28.26 54.66,50.14 13.8,21.87 21.68,46.06 23.51,72.62 1.78,25.82 -2.46,50.49 -12.73,73.9 -10.29,23.4 -25.78,42.71 -46.62,57.94 -20.77,15.21 -44.16,23.71 -70.18,25.5 -25.82,1.78 -50.1,-3.38 -72.81,-15.45 -22.65,-12.09 -40.71,-29.01 -54.24,-50.78 -13.52,-21.77 -21.18,-45.76 -22.98,-71.85zm22.65 -1.7c1.55,22.53 8.23,43.07 20.12,61.51 11.82,18.51 27.11,32.59 45.94,42.16 18.76,9.66 38.71,13.75 59.69,12.3 21.18,-1.45 40.44,-8.32 57.75,-20.66 17.39,-12.35 30.54,-28.32 39.58,-48.05 8.98,-19.74 12.74,-40.87 11.19,-63.41 -1.55,-22.38 -8.16,-42.74 -19.75,-60.93 -11.65,-18.24 -26.87,-32.19 -45.78,-41.9 -18.83,-9.72 -38.84,-13.8 -60.03,-12.35 -20.98,1.45 -40.17,8.17 -57.57,20.24 -17.34,12.07 -30.64,28.06 -39.75,47.88 -9.11,19.87 -12.92,40.94 -11.38,63.19zm89.33 9.04l4.55 66.17 -27.77 1.91 -11.5 -167.02 54.32 -3.74c20.11,-1.39 36.01,1.85 47.69,9.68 11.69,7.85 18.14,19.97 19.27,36.43 1.11,16.14 -6.44,29.1 -22.67,38.79 16.46,5.42 25.45,18.24 26.97,38.33l0.83 11.98c0.78,11.3 2.46,19.28 5.03,24.11l0.21 3.15 -28.56 1.96c-2.15,-4.58 -3.67,-12.91 -4.49,-24.96 -0.84,-12.09 -1.53,-19.2 -2.09,-21.39 -2.95,-12.36 -12,-18.3 -27.16,-17.79l-34.63 2.38zm-1.75 -25.41l30.73 -2.12c9.39,-0.92 16.9,-3.74 22.39,-8.43 5.48,-4.7 7.91,-10.55 7.43,-17.6 -0.66,-9.48 -3.67,-16.04 -9.06,-19.64 -5.38,-3.62 -14.66,-5 -27.77,-4.1l-27.17 1.87 3.45 50.02z"/>
   <g>
    <path class="fil4" d="M729.03 3017.66c1367.2,-283.84 2729.24,-628.77 4117.68,-790.39 26.1,-3.48 50.07,14.86 53.55,40.96 3.48,26.1 -14.86,50.07 -40.96,53.55 -1390.45,249.7 -2729.64,546.28 -4108.87,807.81 -30.9,5.9 -60.75,-14.36 -66.66,-45.26 -5.9,-30.9 14.36,-60.75 45.26,-66.66z"/>
   </g>
   <path class="fil3" d="M739.73 3073.62c1372.82,-262.42 2739.82,-616.31 4113.28,-799.1"/>
   <path class="fil5" d="M4785.8 2007.32c-1.83,-26.56 2.65,-51.59 13.34,-75.16 10.73,-23.57 26.52,-42.62 47.34,-57.16 20.81,-14.61 43.83,-22.74 69.04,-24.48 25.21,-1.74 49.13,3.15 71.69,14.79 22.62,11.55 40.78,28.26 54.66,50.14 13.8,21.87 21.68,46.06 23.51,72.62 1.78,25.82 -2.46,50.49 -12.73,73.9 -10.29,23.4 -25.78,42.71 -46.62,57.94 -20.77,15.21 -44.16,23.71 -70.18,25.5 -25.82,1.78 -50.1,-3.38 -72.81,-15.45 -22.65,-12.08 -40.71,-29.01 -54.24,-50.78 -13.52,-21.77 -21.18,-45.76 -22.98,-71.85zm22.65 -1.7c1.55,22.53 8.23,43.07 20.12,61.52 11.82,18.5 27.11,32.59 45.94,42.16 18.76,9.66 38.71,13.75 59.69,12.3 21.18,-1.45 40.44,-8.32 57.75,-20.65 17.39,-12.35 30.54,-28.33 39.58,-48.05 8.98,-19.74 12.74,-40.87 11.19,-63.41 -1.55,-22.38 -8.16,-42.74 -19.75,-60.93 -11.65,-18.24 -26.87,-32.19 -45.78,-41.9 -18.83,-9.72 -38.84,-13.8 -60.03,-12.35 -20.98,1.45 -40.17,8.17 -57.57,20.24 -17.34,12.07 -30.64,28.06 -39.75,47.88 -9.11,19.87 -12.92,40.94 -11.38,63.19zm89.33 9.05l4.55 66.17 -27.77 1.91 -11.5 -167.02 54.32 -3.74c20.11,-1.39 36.01,1.85 47.69,9.68 11.68,7.84 18.14,19.97 19.26,36.43 1.12,16.14 -6.44,29.1 -22.67,38.8 16.46,5.42 25.45,18.24 26.97,38.33l0.83 11.98c0.78,11.3 2.46,19.28 5.03,24.11l0.21 3.15 -28.56 1.96c-2.15,-4.58 -3.66,-12.91 -4.49,-24.96 -0.84,-12.08 -1.53,-19.2 -2.09,-21.39 -2.95,-12.36 -12,-18.3 -27.16,-17.79l-34.63 2.38zm-1.75 -25.41l30.73 -2.11c9.39,-0.93 16.9,-3.74 22.39,-8.43 5.48,-4.7 7.91,-10.55 7.43,-17.6 -0.66,-9.48 -3.67,-16.04 -9.06,-19.64 -5.38,-3.62 -14.66,-5 -27.78,-4.1l-27.17 1.88 3.45 50.02z"/>
   <path class="fil5" d="M1031.08 1566.42c30.76,-6.76 57.8,-3.75 81.32,8.97 23.52,12.72 38.86,41.86 45.99,87.16 2.4,15.25 5.16,43.84 7.79,85.88 2.9,42.2 6.07,91.92 9.43,149.09 3.38,57.19 6.57,118.89 9.52,184.88 2.95,65.98 6.24,130.25 9.91,193.04l27.62 -6.07c8.76,-1.93 18.33,-4.5 28.69,-7.72 10.36,-3.22 21.07,-6.98 32.13,-11.3 -2.16,11.55 -4.7,22.47 -8.1,32.85 -3.13,10.35 -6.76,19.63 -10.33,27.94 -4.34,9.21 -9.11,17.55 -13.84,24.95 -5.73,11.39 -13.02,22.17 -21.96,31.9 -8.92,9.73 -17.75,17.79 -26.42,24.41 3.36,44.24 6.63,83.79 10.25,118.54 3.36,34.59 7.02,62.99 11.17,85.15 5.51,33.64 13.28,64.67 23,92.91 8.28,24.79 19.12,49.48 32.98,73.99 13.69,24.79 30.84,42.91 51.87,55.01l-141.57 83.38c-13.81,-12.52 -25.83,-30.84 -36.27,-54.67 -10.23,-24.12 -19.04,-48.1 -26.21,-72.19 -8.83,-28.44 -15.85,-58.23 -21.03,-89.35 -4.96,-31.16 -8.79,-72.24 -11.85,-123.61 -3.04,-51.37 -6.18,-107.44 -9.43,-168.4 -18.67,-1.33 -38.75,-1.63 -60.15,-0.47 -21.46,0.95 -44.76,4.19 -70.15,9.76 -22.91,5.04 -46.53,11.17 -71.3,18.49 -24.53,7.27 -48.74,14.95 -72.93,22.84 -2.06,40.96 -3.64,84.16 -4.55,129.34 -1.24,49.03 -2.85,91.05 -4.79,126.09 -2.01,34.82 -4.75,64.15 -8.23,87.99 -3.53,23.62 -8.17,43.24 -13.61,58.09 -5.4,15.09 -12.27,26.71 -20.6,34.9 -9.42,7.5 -21.38,15.29 -36.38,23.06 -13.84,7.75 -31.72,16.39 -53.71,25.7 -21.69,9.47 -50.39,19.3 -85.74,29.89 9.81,-18.63 17.83,-35.71 24.62,-50.84 6.76,-15.39 12.86,-33.67 18.28,-55.11 5.42,-21.44 10.72,-48.75 16.01,-81.45 5.03,-32.9 11.56,-76.02 19.19,-129.26 3.47,-21.72 6.67,-45.73 9.69,-71.6 2.98,-26.08 6.54,-52.77 10.57,-80.5 -30.46,11.41 -56.3,21.32 -77.58,29.54 -21.23,8.42 -33.67,13.97 -37.82,16.54 -6.76,2.41 -12.38,3.65 -17.07,3.74 -11.8,0.94 -19.16,-3.56 -22.17,-13.02 -1.77,-12.32 0.4,-21.75 7.1,-27.7 6.43,-6.13 16.53,-13.75 30.03,-23.08 6.15,-5.11 20.96,-14.96 43.87,-29.64 22.91,-14.69 51.28,-31.29 84.91,-49.74 5.17,-39.75 9.92,-79.17 14.74,-118.39 4.77,-39.42 9.47,-76.95 14.51,-112.92 5.02,-36.18 9.84,-69.97 14.84,-101.91 4.99,-31.95 10.02,-59.42 15.04,-82.67 7.67,-35.82 18.93,-75.73 33.71,-119.95 14.56,-44.18 33.24,-86.66 56.07,-127.46 22.82,-40.81 49.81,-76.64 81.17,-107.54 31.61,-30.74 67.31,-50.57 107.74,-59.45zm45.75 276.97c0.99,-41.65 0.35,-75.65 -1.64,-101.82 -2.2,-26.14 -5.26,-46.41 -9.35,-60.83 -4.06,-14.17 -8.98,-23.68 -15.15,-28.21 -6.01,-4.82 -12.66,-6.18 -19.62,-4.65 -11.47,2.53 -24.46,9.86 -39.38,22.32 -14.7,12.41 -29.46,28.84 -44.31,49.05 -14.88,20.22 -28.64,44.44 -41.29,72.64 -12.68,27.99 -22.62,58.9 -30.01,92.78 -10.2,50.04 -20.59,110.96 -31.65,182.87 -10.82,71.84 -19.9,162.36 -27.24,271.59 16.93,-6.54 33.95,-12.65 50.69,-17.98 16.66,-5.54 33.33,-10.13 49.94,-13.78 29.88,-6.55 58.65,-11.7 86.33,-15.43 27.63,-3.96 53.33,-7.01 76.6,-9.3 -1.4,-43.95 -2.39,-87.06 -2.84,-129.82 -0.68,-42.71 -1.08,-83.13 -1.34,-121.92 -0.24,-38.57 -0.45,-73.85 -0.46,-106.1 -0.2,-31.98 -0.09,-59.33 0.71,-81.4zm-34.52 -539.88c6.49,-8.03 15.35,-9.5 26.59,-4.43 11.19,4.84 20.48,13.86 28.02,26.81 10.12,17.09 13.61,30.91 10.25,41.31 -3.14,10.35 -9.22,20.17 -18.25,29.45 -4.18,5.62 -12.74,13.86 -25.61,24.92 -12.6,11.25 -26.77,22.84 -42.02,34.9 -15.24,12.06 -30.46,23.17 -45.65,33.34 -15.38,10.44 -27.16,16.79 -35.72,19.62 -9.47,3.03 -17.13,3.53 -23.22,1.56 -5.81,-1.79 -10.91,-4.66 -14.99,-8.26 -3.9,-3.84 -7.02,-8.34 -9.19,-13.99 -2.14,-5.4 -3.73,-10.49 -4.66,-14.74 58.1,-62.45 98.55,-106.67 121.3,-132.85 13.2,-14.91 24.32,-27.49 33.15,-37.66zm465.83 1455.12c-34.16,8.43 -63.85,8.36 -88.95,0.23 -25.38,-8.32 -47.1,-23.57 -65.37,-45.7 -18.11,-22.4 -32.81,-50.71 -44.25,-85.63 -11.4,-34.72 -19.93,-73.58 -25.56,-116.37 -2.66,-33.55 -2.2,-68.97 1.56,-106.54 3.09,-31.99 10.44,-68.23 22.32,-108.5 11.87,-40.28 30.68,-81.14 56.43,-122.61 7.53,0 13.6,0.79 18.37,2.09 4.98,1.26 9.07,2.73 12.14,4.88 3.49,3 5.93,5.53 7.41,8.02 3.92,9.27 3.65,20.87 -0.6,34.76 -4.52,13.71 -8.58,28.49 -12.49,43.95 -10.43,44.68 -16.42,86.02 -18.19,124.09 -1.78,38.06 -0.71,72.91 3.32,104.06 4.24,26.85 9.71,50.6 16.45,71.72 6.99,21.07 14.41,38.76 22.03,53.1 7.84,14.29 15.18,25.15 22.4,32.28 6.99,7.18 12.86,10.37 17.13,9.43 4.5,-0.99 8.31,-5.11 11.91,-12.27 3.34,-7.33 6.43,-15.77 8.78,-25.47 3.47,-9.95 6.61,-24.53 9.58,-44.26 3.23,-19.55 6.11,-41.85 8.73,-67.38 2.69,-25.31 4.65,-52.82 6.23,-82.13 1.35,-29.25 1.96,-58.59 1.87,-88 0.02,-58.87 -0.65,-125.13 -2.21,-198.73 -1.39,-73.87 2.83,-152.27 13.26,-235.56 1.65,-34.27 4.64,-72.14 9.41,-113.69 3.2,-35.78 7.93,-77.55 14.61,-125.42 6.44,-47.8 14.52,-99.97 24.3,-156.27 -0.99,-4.5 1.68,-9.56 8.48,-15.06 6.52,-5.67 14.17,-11.57 22.83,-18.19 9.62,-6.58 20.32,-13.65 32.64,-20.83 16.14,-10.13 29.32,-16.56 39.23,-19.68 9.7,-3.08 17.84,-3.45 23.76,-1.21 6.18,2.4 10.53,6.16 13.61,11.61 3.02,5.2 5.36,11.53 6.89,18.5 8.17,28.57 15.03,55.56 21.05,80.84 6.03,25.29 11.64,47.6 16.78,66.73 5.88,22.48 10.87,43.06 14.91,61.46 6.32,24.52 12.14,57.39 17.52,99.06 5.55,41.4 11.17,85.15 17.16,130.69 5.77,45.59 11.8,90.19 18.2,133.29 6.24,43.37 13.31,78.79 21.28,106.48 3.25,14.81 6.98,28.6 11.1,40.89 4.15,12.51 8.27,24.79 12.74,36.53 4.54,-33.96 10.03,-70.03 16.37,-107.68 6.55,-37.71 13.13,-74.24 20.27,-109.24 6.88,-35.18 13.58,-67.97 19.63,-98.26 6.29,-30.35 10.91,-55.38 13.83,-75.34 5.13,-27.02 12.47,-61.14 21.71,-102.71 9.23,-41.6 18.69,-83.23 28.37,-124.92 9.68,-41.69 18.65,-80.16 27.25,-115.02 8.32,-35.02 14.71,-59.5 19.02,-73.16 3.47,-9.95 10.72,-19.77 21.73,-29.74 11.27,-9.77 23.63,-18.84 36.83,-27.39 13.24,-8.33 26.11,-15.16 38.47,-19.99 12.09,-5.02 20.58,-7.11 25.46,-6.29 12,-0.05 20.88,1.76 26.54,5 5.92,3.4 9.31,5.95 10.54,7.33 2.59,3.19 5.23,8.73 7.99,17.08 2.73,8.12 5.09,21.02 7.14,38.93 2.84,21.52 4.94,54.72 6.06,99.46 1.17,44.95 1.76,95.92 1.9,153.34 0.18,57.66 0.44,118.83 0.44,184.28 -0.02,65.24 0.64,129.39 1.45,192.06 0.88,62.92 2.7,121.62 5.03,176.21 2.33,54.6 6.04,100.4 11.46,136.88 7.04,40.61 17.35,75.79 31.25,104.75 5.38,12.72 12.23,24.63 20.07,35.62 8.11,11.19 17.44,20.43 28.22,27.72 10.78,7.29 22.82,11.71 36.16,13.49 13.3,1.55 27.97,-0.26 44.2,-5.7 -18.49,19.84 -37.63,35.58 -57.22,47.19 -19.58,11.6 -39.23,19.68 -59.45,24.12 -21.82,5.73 -41.87,6.59 -60.12,2.84 -18.25,-3.76 -34.73,-11.21 -49.19,-22.39 -14.2,-11.01 -26.32,-25.53 -35.64,-43.28 -9.31,-17.74 -15.64,-38.01 -18.88,-61.31 -3.06,-21.46 -4.82,-57.35 -5.78,-107.75 -0.94,-50.43 -1.48,-107.53 -1.14,-171.42 0.28,-64.1 1.14,-130.94 2.77,-200.74 1.84,-69.87 3.44,-135.46 5,-197.01 1.78,-61.62 3.13,-114.42 4.4,-158.97 1.33,-44.34 1.78,-73.39 1.57,-87.24 -0.53,-10.96 -1.13,-21.18 -1.79,-30.69 -0.69,-9.51 -1.11,-17.89 -0.85,-25.24 -4.91,19.44 -11.05,42.92 -18.25,70.17 -7.42,27.3 -15.09,56.77 -22.84,87.91 -7.98,31.18 -15.78,63.28 -23.48,96.76 -7.94,33.53 -15.24,65.75 -22.32,96.73 -12,50.44 -23.08,101.85 -33.68,154.34 -10.61,52.47 -19.52,102 -26.72,148.55 -7.16,46.79 -12.59,88.49 -16.09,125.04 -3.29,36.52 -4.03,64.24 -1.79,83.05l4.05 18.43c1.17,5.39 2.74,11.4 4.72,18.26 2.03,7.09 4.58,13.35 7.7,19.03l-43.59 52.43c-7.48,4.46 -13.74,8.19 -19,11.01 -5.45,3.08 -10.65,5.16 -16.04,6.33 -19.98,4.39 -37.81,-2.75 -53.01,-21.56 -14.51,-16.81 -32.47,-52.44 -53.57,-106.68 -21.32,-54.18 -38.93,-122.6 -53.48,-204.89 -7.08,-40.82 -13.14,-82.36 -18.34,-124.3 -5.03,-42.22 -9.67,-82.65 -14.15,-121.23 -4.24,-38.62 -8.4,-74.67 -12.01,-108.27 -3.65,-33.82 -8.29,-62.45 -13.49,-86.05 -2.94,-17.73 -6.94,-33.79 -11.67,-47.83 -5,-14.2 -9.71,-27.06 -14.22,-39.02 -3.42,21.95 -6.16,51.27 -8.23,87.99 -2,36.95 -3.68,77.58 -5.02,121.91 -1.28,44.55 -2.34,91.18 -2.9,140.03 -0.79,48.93 -1.53,95.94 -2.18,141.3 -0.69,45.11 -1.38,86.95 -2.15,125.27 -0.76,38.31 -1.31,69.05 -1.93,92.02 -1.01,37.2 -1.04,78.89 0.06,125.73 1.06,46.64 -0.68,91.28 -4.92,134.12 -4.48,42.9 -14.15,80.34 -29.19,112.61 -15.05,32.28 -39.07,52.62 -72.12,60.82zm1581.07 -735.08c7.53,60.04 1.57,116.45 -18.1,169.5 -19.44,53.02 -48.77,100.66 -87.76,142.91 -39.27,42.05 -85.79,77.94 -140.1,107.3 -54.31,29.34 -112.01,50.73 -173.56,64.24 -22.69,4.99 -44.37,8.11 -64.78,9.53 -20.47,1.19 -39.05,1.28 -55.71,0.45 -16.71,-1.03 -31.08,-2.12 -42.96,-3.74 -11.85,-1.42 -20.23,-3.09 -25.1,-4.86 -9.02,-2.49 -16.54,-6.73 -22.69,-12.21 -6.38,-5.42 -11.14,-14.26 -14.75,-26.42 -2.43,-6.77 -4.12,-12.28 -4.95,-16.1 -0.89,-4.04 -1.31,-8.2 -1.42,-12.89 -0.04,-4.45 -0.02,-10.82 0.6,-18.73 0.61,-7.91 1.26,-18.89 1.71,-32.87 0.09,-8.27 1.39,-34.45 4.12,-78.85 2.79,-44.18 5.74,-98.27 9.18,-161.9 3.63,-63.92 7.52,-133.05 11.89,-207.48 4.1,-74.6 8.26,-146.86 12.21,-216.73 3.97,-69.86 7.79,-132.88 10.92,-189.37 3.42,-56.31 5.56,-97.98 7.17,-124.95 -10.43,11.47 -20.53,23.35 -30.33,35.63 -9.56,12.22 -19.37,25.45 -29.21,39.62 -10.36,14.97 -22.44,22.12 -35.92,20.84 -13.63,-1.02 -25,-9.82 -34.24,-26.16 -3.49,-8.42 -6.87,-17.34 -9.88,-26.79 -2.63,-7.68 -4.38,-16.7 -5.24,-27.11 -0.88,-10.41 0.09,-20.99 3.38,-31.83 25.12,-23.88 50.12,-45.15 75.09,-63.35 24.91,-18.43 49,-35.24 72.26,-50.49 2.14,-16 5.47,-28.75 10.26,-38.03 4.78,-9.31 10.56,-16.23 16.94,-20.44 6.42,-4 13.62,-6.53 21.91,-7.41 8.07,-0.83 16.63,-1.53 25.78,-1.65 20.3,0.25 34.44,3.49 42.24,10.02 11.95,-4.5 23.38,-8.2 34.65,-11.61 11.24,-3.42 23.07,-6.47 35.19,-9.13 50.99,-11.2 96.68,-14.41 137.33,-9.46 40.6,4.75 75.5,15.69 104.46,32.87 29.19,17.15 52.22,39.4 69.33,66.96 16.9,27.6 27.86,58.17 32.5,92.23 3.85,29.3 2.59,61.14 -3.13,95.12 -5.94,34.03 -16.08,68.3 -30.54,103.25 -14.23,34.92 -32.48,69.77 -54.29,104.46 -21.81,34.7 -47.31,67.62 -76.27,98.71 30.67,9.97 58.97,23.07 84.46,39.37 25.76,16.48 48.32,35.54 67.83,56.91 19.32,21.43 34.94,44.38 46.81,68.38 11.65,24.05 19.3,48.27 22.69,72.25zm-506.59 -226.64c0.35,9.11 0.26,18.32 -0.06,27.56 -0.32,9.26 -0.77,19 -1.14,29.21 8.04,-13.78 23.48,-28.24 46.29,-43.36 22.82,-15.15 45.81,-25.15 68.51,-30.13 12.35,-2.72 24.39,-4.66 36.16,-5.82 11.48,-1.34 22.83,-2.19 33.79,-2.71 21.03,-21.11 40.35,-46.78 57.78,-76.74 17.15,-30.14 31.29,-61.27 42.1,-93.56 10.79,-32.27 18.54,-64.58 23.03,-96.66 4.21,-32.24 5.11,-61.4 1.95,-87.55 -7.87,-61.61 -28.08,-104.28 -60.37,-128.02 -32.53,-23.71 -72.35,-30.26 -119.74,-19.86 -31.45,6.91 -63.24,19.77 -94.88,38.73 -1.98,24.22 -4.53,54.45 -7.63,90.69 -3.15,36.01 -6.24,75.54 -9.27,118.59 -2.84,42.79 -6.06,88.21 -9.48,135.84 -3.23,47.55 -5.65,95.42 -7.04,143.77zm-3.19 91.59c-1.95,50.12 -3.02,104.28 -3,162.19 -1.05,49.92 -1.31,107.66 -0.58,173.21 0.56,65.82 1.28,135.59 1.88,210.09 6.33,3.1 13.99,4.7 23.15,4.58 9.14,-0.13 18.25,-0.47 27.41,-0.6 10.05,-0.32 20.81,-1.74 32.27,-4.25 39.31,-8.63 77.75,-25.56 115.07,-50.72 37.07,-25.32 69.55,-56.47 97.36,-93.91 27.57,-37.37 48.39,-79.85 62.43,-127.44 13.76,-47.77 17.23,-98.45 9.96,-151.95 -3.44,-24.2 -9.65,-44.96 -18.52,-62.82 -9.08,-17.78 -19.84,-33.54 -32.4,-46.79 -12.57,-13.26 -26.15,-24.65 -40.66,-33.93 -14.25,-9.12 -29.1,-16.69 -44.27,-22.54 -35.43,30.63 -75.85,58.83 -120.84,84.48 -14.79,7.72 -28.12,11.35 -40.22,10.95 -12.15,-0.63 -22.84,-3.23 -32.18,-8.24 -9.31,-4.78 -17.28,-11.03 -23.47,-18.87 -6.42,-7.77 -10.71,-15.54 -13.37,-23.43zm1003.77 -882.61c30.78,-6.76 57.8,-3.75 81.32,8.97 23.52,12.74 38.86,41.86 45.99,87.16 2.41,15.25 5.17,43.84 7.81,85.88 2.9,42.21 6.06,91.92 9.43,149.1 3.38,57.17 6.57,118.87 9.52,184.87 2.95,66 6.24,130.26 9.89,193.04l27.63 -6.07c8.77,-1.93 18.33,-4.5 28.7,-7.71 10.36,-3.23 21.07,-6.99 32.13,-11.3 -2.16,11.53 -4.72,22.46 -8.1,32.84 -3.13,10.34 -6.76,19.63 -10.33,27.95 -4.34,9.19 -9.11,17.55 -13.84,24.93 -5.74,11.38 -13.02,22.17 -21.96,31.9 -8.93,9.73 -17.75,17.8 -26.44,24.41 3.37,44.24 6.63,83.79 10.26,118.55 3.35,34.58 7,62.99 11.17,85.15 5.51,33.64 13.26,64.65 22.99,92.91 8.27,24.78 19.12,49.48 32.98,73.99 13.67,24.79 30.84,42.91 51.87,55.01l-141.57 83.38c-13.81,-12.51 -25.85,-30.83 -36.27,-54.67 -10.25,-24.12 -19.04,-48.1 -26.22,-72.19 -8.83,-28.44 -15.84,-58.21 -21.03,-89.34 -4.95,-31.16 -8.79,-72.25 -11.83,-123.6 -3.05,-51.38 -6.18,-107.44 -9.45,-168.42 -18.65,-1.31 -38.73,-1.63 -60.14,-0.45 -21.46,0.94 -44.76,4.18 -70.16,9.76 -22.91,5.03 -46.53,11.16 -71.29,18.49 -24.53,7.27 -48.75,14.94 -72.93,22.84 -2.07,40.95 -3.65,84.16 -4.55,129.32 -1.25,49.03 -2.85,91.06 -4.8,126.1 -2,34.82 -4.75,64.15 -8.22,87.99 -3.54,23.63 -8.17,43.25 -13.62,58.1 -5.39,15.07 -12.26,26.71 -20.58,34.9 -9.43,7.48 -21.38,15.29 -36.39,23.04 -13.83,7.76 -31.71,16.4 -53.69,25.7 -21.69,9.48 -50.39,19.3 -85.74,29.9 9.81,-18.64 17.83,-35.7 24.62,-50.85 6.76,-15.38 12.85,-33.67 18.28,-55.11 5.4,-21.44 10.72,-48.75 16.01,-81.46 5.02,-32.89 11.56,-76.02 19.18,-129.26 3.47,-21.72 6.67,-45.73 9.71,-71.59 2.98,-26.1 6.54,-52.78 10.57,-80.5 -30.46,11.4 -56.3,21.32 -77.58,29.52 -21.23,8.43 -33.67,13.98 -37.82,16.54 -6.76,2.42 -12.37,3.65 -17.06,3.76 -11.8,0.94 -19.16,-3.57 -22.17,-13.02 -1.78,-12.34 0.4,-21.77 7.09,-27.71 6.43,-6.12 16.53,-13.75 30.03,-23.07 6.17,-5.13 20.97,-14.97 43.89,-29.65 22.9,-14.69 51.28,-31.29 84.91,-49.74 5.17,-39.75 9.92,-79.17 14.73,-118.38 4.77,-39.43 9.47,-76.97 14.52,-112.93 5.02,-36.18 9.83,-69.96 14.82,-101.9 5.01,-31.96 10.04,-59.44 15.05,-82.67 7.67,-35.82 18.92,-75.74 33.69,-119.95 14.56,-44.17 33.24,-86.67 56.07,-127.47 22.83,-40.8 49.82,-76.64 81.17,-107.54 31.63,-30.72 67.31,-50.57 107.74,-59.45zm45.76 276.99c0.98,-41.66 0.34,-75.66 -1.64,-101.84 -2.2,-26.12 -5.25,-46.41 -9.36,-60.81 -4.05,-14.18 -8.97,-23.7 -15.15,-28.23 -5.99,-4.8 -12.65,-6.18 -19.62,-4.64 -11.46,2.52 -24.45,9.84 -39.38,22.31 -14.69,12.41 -29.45,28.84 -44.31,49.07 -14.88,20.2 -28.62,44.43 -41.27,72.62 -12.68,27.99 -22.62,58.9 -30.01,92.79 -10.2,50.04 -20.6,110.94 -31.65,182.86 -10.83,71.83 -19.9,162.36 -27.24,271.59 16.91,-6.55 33.94,-12.64 50.68,-17.97 16.68,-5.56 33.33,-10.15 49.95,-13.79 29.88,-6.57 58.65,-11.71 86.33,-15.43 27.62,-3.96 53.33,-7.02 76.6,-9.3 -1.4,-43.96 -2.4,-87.07 -2.85,-129.84 -0.66,-42.71 -1.06,-83.12 -1.34,-121.91 -0.23,-38.57 -0.45,-73.85 -0.46,-106.09 -0.19,-31.99 -0.08,-59.32 0.72,-81.4zm521.44 339.24c10.21,-3.9 20.11,-8.18 30.18,-12.75 10.06,-4.57 20.87,-10.01 32.47,-16.08 -18.14,-10.86 -39.84,-15.28 -65.07,-13.26 0.36,14.51 1.35,28.66 2.41,42.09zm448.93 -524.82c4.93,38.48 3.72,80.19 -3.65,124.91 -7.09,44.89 -21.04,89.62 -41.32,134.58 -20.48,45 -47.85,88.7 -81.62,131.2 -34.03,42.32 -75,79.82 -122.93,112.47 11.11,13.1 22.03,27.42 32.87,42.47 10.62,15.1 20.82,32.63 30.87,52.56 14.02,26.36 27.13,53.85 39.29,82.5 12.36,28.37 23.44,56.32 33.65,83.51 10,27.25 19.35,52.72 27.77,76.09 8.21,23.38 15.06,42.83 20.37,58.39 9.37,25.5 22,42.27 37.9,50.32 16.08,7.77 32.73,10.71 50.09,8.3 17.36,-2.4 34.23,-8.22 50.12,-17.35 15.94,-8.92 28.17,-17.5 36.46,-25.91 -0.7,1.09 -3.96,9.82 -9.52,26.35 -5.59,16.3 -14.11,34.41 -25.37,53.84 -11.51,19.47 -26.14,37.53 -44.01,53.71 -18.06,16.44 -40.36,25.33 -66.72,26.42 -18.12,1.15 -35.13,-1.24 -50.63,-7.5 -15.72,-6.19 -30.42,-17.34 -44.47,-33.08 -14.05,-15.75 -27.17,-36.89 -39.63,-63.59 -12.22,-26.75 -23.82,-60.23 -34.23,-100.1 -13.79,-54.18 -27.2,-105.64 -40.35,-154.78 -13.11,-48.93 -32.6,-92.69 -58.5,-131.26 -4.02,-6.43 -8.18,-12.59 -12.36,-18.71 -4.12,-5.93 -8.32,-11.12 -13.11,-15.74 -34.02,16.66 -73.16,31.38 -117.32,43.67 1.29,34.81 2.05,70.42 2.78,107 0.79,36.79 1.1,72.53 0.76,107.44 -0.06,35.1 -1.08,68.06 -2.93,99.31 -1.84,31.24 -4.4,58.17 -7.62,81.03 -3.93,23.93 -11.26,44.14 -21.96,60.86 -10.52,16.44 -30.83,27.96 -60.71,34.52 -17.52,3.85 -33.63,3.39 -48.62,-1.56 -15.01,-5.17 -29.97,-13.2 -45.44,-24.63 3,-3.49 7.51,-8.71 13.64,-16.18 6.41,-7.29 12.65,-20.68 19,-39.97 6.14,-19.24 11.82,-45.91 16.76,-80.22 4.95,-34.29 7.53,-79.35 8.15,-135.54 -0.34,-22.99 -0.13,-49.88 0.83,-80.93 0.95,-31.05 2.15,-65.24 3.21,-102.21 -39.51,-11.57 -61.36,-33.86 -65.8,-67.01 -2.6,-20.39 2.81,-39.71 16.37,-57.29 13.53,-17.8 31.6,-31.91 54.06,-42.25 1.45,-48.12 3.02,-96.74 4.7,-145.86 1.46,-49.05 3.09,-95.33 4.72,-138.3 1.58,-43.21 3.14,-82.17 4.69,-116.89 1.51,-34.95 2.75,-62.54 3.9,-83.05 -13.64,14.06 -26.75,29.43 -39.61,45.91 -11.64,14.55 -23.83,30.89 -36.83,48.82 -13.25,17.99 -24.95,36.57 -35.42,55.35 -8.32,-3.58 -15.23,-8.19 -21.04,-13.27 -5.61,-5.13 -10.38,-9.72 -13.79,-13.46 -4.78,-4.6 -8.71,-9.61 -11.85,-15.29 -8.77,-11.02 -14.89,-23.81 -18.04,-38.19 -3.2,-14.6 4.14,-31.53 22.01,-50.99 9.68,-10.6 24.52,-25.63 44.35,-45.76 20.11,-19.97 45.64,-40.88 76.74,-62.3 31.03,-21.66 68.13,-42.51 110.96,-62.99 43.06,-20.52 91.97,-36.92 147.23,-49.05 55.27,-12.15 102.61,-11 141.59,3.51 38.97,14.51 71.36,35.43 96.68,62.83 25.38,27.63 44.59,58.26 58.18,92.25 13.32,33.8 21.64,64.23 24.72,91.1zm-317.9 449.18c27.29,-21.55 53.8,-46.66 79.29,-75.35 25.48,-28.66 47.11,-60.96 64.84,-97.12 18,-35.98 30.74,-75.51 39.06,-118.07 8.04,-42.74 8.94,-89.09 2.39,-139.22 -6.08,-44.82 -17.04,-80.79 -32.66,-107.98 -15.67,-27.4 -34.56,-47.98 -56.38,-61.56 -21.82,-13.57 -45.02,-21.66 -69.35,-24.08 -24.53,-2.38 -48.06,-1.21 -70.97,3.82 -21.12,4.64 -41.55,12.41 -61.78,23.22 -20.19,11.03 -39.12,23.43 -57.22,37.53 2.68,0.35 6.26,1.68 10.65,4.49 2.39,2.3 4.87,5.05 8.01,8.61 3.14,3.54 5.61,7.23 7.48,11.54 -1.51,89.58 -2.1,164.11 -1.92,223.89 0.18,59.78 0.27,108.49 0.31,146.16 -0.43,44.12 0.06,79.57 1.14,105.95 -0.11,3.79 -0.05,7.31 0.53,10.95 0.34,3.69 0.5,7.66 0.59,12.35 20.26,0.02 42.01,2.55 64.92,7.17 23.15,4.58 46.81,13.74 71.09,27.72z"/>
  </g>
 </g>
</svg>
